<mxfile host="app.diagrams.net" agent="Mozilla/5.0 (Windows NT 10.0; Win64; x64) AppleWebKit/537.36 (KHTML, like Gecko) Chrome/140.0.0.0 Safari/537.36" version="26.0.6">
  <diagram name="Page-1" id="zVe478JgjaUe42Rrhxo5">
    <mxGraphModel dx="1255" dy="668" grid="1" gridSize="10" guides="1" tooltips="1" connect="1" arrows="1" fold="1" page="1" pageScale="1" pageWidth="850" pageHeight="1100" math="0" shadow="0">
      <root>
        <mxCell id="0" />
        <mxCell id="1" parent="0" />
        <mxCell id="Cob6Ag-chRKVqflmcDh3-1" value="USER" style="swimlane;fontStyle=3;childLayout=stackLayout;horizontal=1;startSize=50;horizontalStack=0;resizeParent=1;resizeParentMax=0;resizeLast=0;collapsible=1;marginBottom=0;align=center;fontSize=18;rotation=0;fillColor=#dae8fc;strokeColor=#6c8ebf;" vertex="1" parent="1">
          <mxGeometry x="20" y="280" width="215" height="220" as="geometry">
            <mxRectangle x="265" y="40" width="70" height="30" as="alternateBounds" />
          </mxGeometry>
        </mxCell>
        <mxCell id="Cob6Ag-chRKVqflmcDh3-2" value="&lt;font style=&quot;font-size: 18px;&quot;&gt;id (PK)&lt;/font&gt;" style="text;strokeColor=none;fillColor=none;spacingLeft=4;spacingRight=4;overflow=hidden;rotatable=0;points=[[0,0.5],[1,0.5]];portConstraint=eastwest;fontSize=12;whiteSpace=wrap;html=1;rotation=0;" vertex="1" parent="Cob6Ag-chRKVqflmcDh3-1">
          <mxGeometry y="50" width="215" height="40" as="geometry" />
        </mxCell>
        <mxCell id="Cob6Ag-chRKVqflmcDh3-3" value="&lt;font style=&quot;font-size: 18px;&quot;&gt;username&lt;/font&gt;" style="text;strokeColor=none;fillColor=none;spacingLeft=4;spacingRight=4;overflow=hidden;rotatable=0;points=[[0,0.5],[1,0.5]];portConstraint=eastwest;fontSize=12;whiteSpace=wrap;html=1;rotation=0;" vertex="1" parent="Cob6Ag-chRKVqflmcDh3-1">
          <mxGeometry y="90" width="215" height="40" as="geometry" />
        </mxCell>
        <mxCell id="Cob6Ag-chRKVqflmcDh3-4" value="&lt;font style=&quot;font-size: 18px;&quot;&gt;email&lt;/font&gt;" style="text;strokeColor=none;fillColor=none;spacingLeft=4;spacingRight=4;overflow=hidden;rotatable=0;points=[[0,0.5],[1,0.5]];portConstraint=eastwest;fontSize=12;whiteSpace=wrap;html=1;rotation=0;" vertex="1" parent="Cob6Ag-chRKVqflmcDh3-1">
          <mxGeometry y="130" width="215" height="40" as="geometry" />
        </mxCell>
        <mxCell id="Cob6Ag-chRKVqflmcDh3-30" value="&lt;font style=&quot;font-size: 18px;&quot;&gt;password&lt;br&gt;&lt;/font&gt;" style="text;strokeColor=none;fillColor=none;spacingLeft=4;spacingRight=4;overflow=hidden;rotatable=0;points=[[0,0.5],[1,0.5]];portConstraint=eastwest;fontSize=12;whiteSpace=wrap;html=1;rotation=0;" vertex="1" parent="Cob6Ag-chRKVqflmcDh3-1">
          <mxGeometry y="170" width="215" height="50" as="geometry" />
        </mxCell>
        <mxCell id="Cob6Ag-chRKVqflmcDh3-32" value="Movie" style="swimlane;fontStyle=3;childLayout=stackLayout;horizontal=1;startSize=50;horizontalStack=0;resizeParent=1;resizeParentMax=0;resizeLast=0;collapsible=1;marginBottom=0;align=center;fontSize=18;rotation=0;fillColor=#d5e8d4;strokeColor=#82b366;" vertex="1" parent="1">
          <mxGeometry x="500" y="20" width="220" height="260" as="geometry">
            <mxRectangle x="265" y="40" width="70" height="30" as="alternateBounds" />
          </mxGeometry>
        </mxCell>
        <mxCell id="Cob6Ag-chRKVqflmcDh3-33" value="&lt;font style=&quot;font-size: 18px;&quot;&gt;id (PK)&lt;/font&gt;" style="text;strokeColor=none;fillColor=none;spacingLeft=4;spacingRight=4;overflow=hidden;rotatable=0;points=[[0,0.5],[1,0.5]];portConstraint=eastwest;fontSize=12;whiteSpace=wrap;html=1;rotation=0;" vertex="1" parent="Cob6Ag-chRKVqflmcDh3-32">
          <mxGeometry y="50" width="220" height="40" as="geometry" />
        </mxCell>
        <mxCell id="Cob6Ag-chRKVqflmcDh3-34" value="&lt;font style=&quot;font-size: 18px;&quot;&gt;title&lt;/font&gt;" style="text;strokeColor=none;fillColor=none;spacingLeft=4;spacingRight=4;overflow=hidden;rotatable=0;points=[[0,0.5],[1,0.5]];portConstraint=eastwest;fontSize=12;whiteSpace=wrap;html=1;rotation=0;" vertex="1" parent="Cob6Ag-chRKVqflmcDh3-32">
          <mxGeometry y="90" width="220" height="40" as="geometry" />
        </mxCell>
        <mxCell id="Cob6Ag-chRKVqflmcDh3-35" value="&lt;font style=&quot;font-size: 18px;&quot;&gt;release_year&lt;/font&gt;" style="text;strokeColor=none;fillColor=none;spacingLeft=4;spacingRight=4;overflow=hidden;rotatable=0;points=[[0,0.5],[1,0.5]];portConstraint=eastwest;fontSize=12;whiteSpace=wrap;html=1;rotation=0;" vertex="1" parent="Cob6Ag-chRKVqflmcDh3-32">
          <mxGeometry y="130" width="220" height="40" as="geometry" />
        </mxCell>
        <mxCell id="Cob6Ag-chRKVqflmcDh3-36" value="&lt;font style=&quot;font-size: 18px;&quot;&gt;status&lt;br&gt;&lt;/font&gt;" style="text;strokeColor=none;fillColor=none;spacingLeft=4;spacingRight=4;overflow=hidden;rotatable=0;points=[[0,0.5],[1,0.5]];portConstraint=eastwest;fontSize=12;whiteSpace=wrap;html=1;rotation=0;" vertex="1" parent="Cob6Ag-chRKVqflmcDh3-32">
          <mxGeometry y="170" width="220" height="40" as="geometry" />
        </mxCell>
        <mxCell id="Cob6Ag-chRKVqflmcDh3-37" value="&lt;font style=&quot;font-size: 18px;&quot;&gt;user_id (FK → User)&lt;/font&gt;" style="text;strokeColor=none;fillColor=none;spacingLeft=4;spacingRight=4;overflow=hidden;rotatable=0;points=[[0,0.5],[1,0.5]];portConstraint=eastwest;fontSize=12;whiteSpace=wrap;html=1;rotation=0;" vertex="1" parent="Cob6Ag-chRKVqflmcDh3-32">
          <mxGeometry y="210" width="220" height="50" as="geometry" />
        </mxCell>
        <mxCell id="Cob6Ag-chRKVqflmcDh3-38" value="Series" style="swimlane;fontStyle=3;childLayout=stackLayout;horizontal=1;startSize=50;horizontalStack=0;resizeParent=1;resizeParentMax=0;resizeLast=0;collapsible=1;marginBottom=0;align=center;fontSize=18;rotation=0;fillColor=#d5e8d4;strokeColor=#82b366;" vertex="1" parent="1">
          <mxGeometry x="500" y="320" width="220" height="310" as="geometry">
            <mxRectangle x="265" y="40" width="70" height="30" as="alternateBounds" />
          </mxGeometry>
        </mxCell>
        <mxCell id="Cob6Ag-chRKVqflmcDh3-39" value="&lt;font style=&quot;font-size: 18px;&quot;&gt;id (PK)&lt;/font&gt;" style="text;strokeColor=none;fillColor=none;spacingLeft=4;spacingRight=4;overflow=hidden;rotatable=0;points=[[0,0.5],[1,0.5]];portConstraint=eastwest;fontSize=12;whiteSpace=wrap;html=1;rotation=0;" vertex="1" parent="Cob6Ag-chRKVqflmcDh3-38">
          <mxGeometry y="50" width="220" height="50" as="geometry" />
        </mxCell>
        <mxCell id="Cob6Ag-chRKVqflmcDh3-40" value="&lt;font style=&quot;font-size: 18px;&quot;&gt;title&lt;/font&gt;" style="text;strokeColor=none;fillColor=none;spacingLeft=4;spacingRight=4;overflow=hidden;rotatable=0;points=[[0,0.5],[1,0.5]];portConstraint=eastwest;fontSize=12;whiteSpace=wrap;html=1;rotation=0;" vertex="1" parent="Cob6Ag-chRKVqflmcDh3-38">
          <mxGeometry y="100" width="220" height="40" as="geometry" />
        </mxCell>
        <mxCell id="Cob6Ag-chRKVqflmcDh3-41" value="&lt;font style=&quot;font-size: 18px;&quot;&gt;total_episodes&lt;/font&gt;" style="text;strokeColor=none;fillColor=none;spacingLeft=4;spacingRight=4;overflow=hidden;rotatable=0;points=[[0,0.5],[1,0.5]];portConstraint=eastwest;fontSize=12;whiteSpace=wrap;html=1;rotation=0;" vertex="1" parent="Cob6Ag-chRKVqflmcDh3-38">
          <mxGeometry y="140" width="220" height="50" as="geometry" />
        </mxCell>
        <mxCell id="Cob6Ag-chRKVqflmcDh3-42" value="&lt;font style=&quot;font-size: 18px;&quot;&gt;watched_episodes&lt;br&gt;&lt;/font&gt;" style="text;strokeColor=none;fillColor=none;spacingLeft=4;spacingRight=4;overflow=hidden;rotatable=0;points=[[0,0.5],[1,0.5]];portConstraint=eastwest;fontSize=12;whiteSpace=wrap;html=1;rotation=0;" vertex="1" parent="Cob6Ag-chRKVqflmcDh3-38">
          <mxGeometry y="190" width="220" height="40" as="geometry" />
        </mxCell>
        <mxCell id="Cob6Ag-chRKVqflmcDh3-44" value="&lt;font style=&quot;font-size: 18px;&quot;&gt;status&lt;br&gt;&lt;/font&gt;" style="text;strokeColor=none;fillColor=none;spacingLeft=4;spacingRight=4;overflow=hidden;rotatable=0;points=[[0,0.5],[1,0.5]];portConstraint=eastwest;fontSize=12;whiteSpace=wrap;html=1;rotation=0;" vertex="1" parent="Cob6Ag-chRKVqflmcDh3-38">
          <mxGeometry y="230" width="220" height="40" as="geometry" />
        </mxCell>
        <mxCell id="Cob6Ag-chRKVqflmcDh3-43" value="&lt;font style=&quot;font-size: 18px;&quot;&gt;user_id (FK → User)&lt;/font&gt;" style="text;strokeColor=none;fillColor=none;spacingLeft=4;spacingRight=4;overflow=hidden;rotatable=0;points=[[0,0.5],[1,0.5]];portConstraint=eastwest;fontSize=12;whiteSpace=wrap;html=1;rotation=0;" vertex="1" parent="Cob6Ag-chRKVqflmcDh3-38">
          <mxGeometry y="270" width="220" height="40" as="geometry" />
        </mxCell>
        <mxCell id="Cob6Ag-chRKVqflmcDh3-53" style="edgeStyle=none;shape=flexArrow;rounded=0;orthogonalLoop=1;jettySize=auto;html=1;entryX=0;entryY=0.5;entryDx=0;entryDy=0;" edge="1" parent="1" source="Cob6Ag-chRKVqflmcDh3-2" target="Cob6Ag-chRKVqflmcDh3-33">
          <mxGeometry relative="1" as="geometry">
            <Array as="points">
              <mxPoint x="390" y="350" />
            </Array>
          </mxGeometry>
        </mxCell>
        <mxCell id="Cob6Ag-chRKVqflmcDh3-54" style="edgeStyle=none;shape=flexArrow;rounded=0;orthogonalLoop=1;jettySize=auto;html=1;endWidth=11.666666666666668;endSize=7.883333333333335;entryX=0;entryY=0.5;entryDx=0;entryDy=0;" edge="1" parent="1" source="Cob6Ag-chRKVqflmcDh3-2" target="Cob6Ag-chRKVqflmcDh3-39">
          <mxGeometry relative="1" as="geometry">
            <Array as="points">
              <mxPoint x="400" y="350" />
            </Array>
          </mxGeometry>
        </mxCell>
      </root>
    </mxGraphModel>
  </diagram>
</mxfile>
